<?xml version="1.0" encoding="UTF-8" standalone="no"?>
<!DOCTYPE svg PUBLIC "-//W3C//DTD SVG 1.1//EN" "http://www.w3.org/Graphics/SVG/1.1/DTD/svg11.dtd">
<svg width="100%" height="100%" viewBox="0 0 500 157" version="1.1" xmlns="http://www.w3.org/2000/svg" xmlns:xlink="http://www.w3.org/1999/xlink" xml:space="preserve" xmlns:serif="http://www.serif.com/" style="fill-rule:evenodd;clip-rule:evenodd;">
    <g transform="matrix(1,0,0,1,-343.300242,-857.259011)">
        <g transform="matrix(0.283033,0,0,0.283033,297.080837,833.410906)">
            <g transform="matrix(3.892044,0,0,3.892044,109.169595,-220.934178)">
                <g transform="matrix(1,0,0,1,-1.420321,0.997895)">
                    <path d="M20,120L90,80L160,120L160,175L90,215L20,175L20,120Z" style="fill:none;"/>
                </g>
                <g transform="matrix(1,0,0,1.020157,-0.345281,-0.844852)">
                    <path d="M20,120L90,80L160,120L90,160L20,120Z" style="fill:rgb(232,118,42);fill-opacity:0.07;"/>
                </g>
                <g transform="matrix(1,0,0,1,0,2.150079)">
                    <path d="M160,120L160,175L90,215L90,160L160,120Z" style="fill:rgb(10,45,92);fill-opacity:0.12;"/>
                </g>
            </g>
            <g transform="matrix(3.70679,-0.941933,0.47217,1.930336,276.161513,104.38919)">
                <path d="M55,100L106.487,128.034" style="fill:none;stroke:rgb(10,45,92);stroke-width:0.59px;"/>
            </g>
            <g transform="matrix(3.892044,0,0,3.892044,804.362737,-8.12108)">
                <g transform="matrix(1.32878,-0.064502,0.63606,1.168437,-193.051746,-55.693414)">
                    <path d="M20,120L55,155" style="fill:none;stroke:rgb(10,45,92);stroke-width:0.29px;"/>
                </g>
                <g transform="matrix(0.60856,-1.167849,1.315667,0.056896,-327.245822,138.907046)">
                    <path d="M20,120L55,155" style="fill:none;stroke:rgb(10,45,92);stroke-width:0.29px;"/>
                </g>
                <g transform="matrix(0.874312,-0.222172,0.232108,0.948908,-195.546028,-33.940913)">
                    <path d="M55,100L106.487,128.034" style="fill:none;stroke:rgb(10,45,92);stroke-width:0.47px;"/>
                </g>
                <g transform="matrix(-0.507236,0.128894,0.289868,1.185044,-72.288108,-59.484969)">
                    <path d="M55,100L106.487,128.034" style="fill:none;stroke:rgb(10,45,92);stroke-width:0.49px;"/>
                </g>
                <g transform="matrix(1.623429,0.846446,0.551292,1.759924,-244.350776,-241.527436)">
                    <path d="M20,155L55,190" style="fill:none;stroke:rgb(10,45,92);stroke-width:0.26px;"/>
                </g>
                <g transform="matrix(1.988157,0,0,0.455959,-339.581791,15.15544)">
                    <path d="M90,115L125,150" style="fill:none;stroke:rgb(10,45,92);stroke-width:0.32px;"/>
                </g>
                <g transform="matrix(-1.031828,0,0,1.033309,39.082161,-71.447076)">
                    <path d="M90,115L125,150" style="fill:none;stroke:rgb(10,45,92);stroke-width:0.44px;"/>
                </g>
                <g transform="matrix(-0.954108,0,0,-2.119911,65.118431,366.173205)">
                    <path d="M90,115L125,150" style="fill:none;stroke:rgb(10,45,92);stroke-width:0.28px;"/>
                </g>
                <g transform="matrix(2.046786,0,0,-0.268166,-274.24198,162.245672)">
                    <path d="M90,115L125,150" style="fill:none;stroke:rgb(10,45,92);stroke-width:0.31px;"/>
                </g>
                <g transform="matrix(1.147858,0,0,-0.130463,-263.954884,137.775315)">
                    <path d="M90,115L180.777,255.16" style="fill:none;stroke:rgb(10,45,92);stroke-width:0.56px;"/>
                </g>
                <g transform="matrix(0.489267,0,0,-0.979022,-182.920059,224.090105)">
                    <path d="M127.108,81.619L123.145,150" style="fill:none;stroke:rgb(10,45,92);stroke-width:0.59px;"/>
                </g>
                <g transform="matrix(0.489267,0,0,-0.979022,-182.920059,224.090105)">
                    <path d="M90,115L125,150" style="fill:none;stroke:rgb(10,45,92);stroke-width:0.59px;"/>
                </g>
                <g transform="matrix(0.994584,0,0,-1.034401,-143.493979,224.331119)">
                    <path d="M90,115L125,150" style="fill:none;stroke:rgb(10,45,92);stroke-width:0.45px;"/>
                </g>
                <g transform="matrix(1,0,0,0.780205,-179.533679,-34.100322)">
                    <path d="M90,80L90,151.158" style="fill:none;stroke:rgb(10,45,92);stroke-width:0.51px;"/>
                </g>
            </g>
            <g transform="matrix(3.892044,0,0,3.892044,105.609799,-213.814586)">
                <path d="M18.872,118.026L88.872,78.026C89.571,77.627 90.429,77.627 91.128,78.026L161.128,118.026C161.836,118.431 162.273,119.184 162.273,120C162.273,120.816 161.836,121.569 161.128,121.974L91.128,161.974C90.429,162.373 89.571,162.373 88.872,161.974L18.872,121.974C18.164,121.569 17.727,120.816 17.727,120C17.727,119.184 18.164,118.431 18.872,118.026ZM20,120L90,160L160,120L90,80L20,120Z" style="fill:rgb(232,118,42);"/>
                <g transform="matrix(1,0,0,0.780205,0,95.692424)">
                    <path d="M90,80L90,151.158" style="fill:none;stroke:rgb(10,45,92);stroke-width:2.5px;"/>
                </g>
                <g transform="matrix(0.497525,0.86745,-0.922249,0.528955,187.943571,55.295401)">
                    <path d="M90,80L90,151.158" style="fill:none;stroke:rgb(10,45,92);stroke-width:2.2px;stroke-miterlimit:2;"/>
                </g>
                <g transform="matrix(-0.506482,0.862251,-0.916721,-0.538477,205.409213,179.136281)">
                    <path d="M90,80L90,151.158" style="fill:none;stroke:rgb(10,45,92);stroke-width:2.2px;stroke-miterlimit:2;"/>
                </g>
                <g transform="matrix(1,0,0,0.780205,-70.426829,56.363156)">
                    <path d="M90,80L90,151.158" style="fill:none;stroke:rgb(10,45,92);stroke-width:2.53px;stroke-miterlimit:2;"/>
                </g>
                <g transform="matrix(1,0,0,0.780205,69.512195,58.192424)">
                    <path d="M90,80L90,151.158" style="fill:none;stroke:rgb(10,45,92);stroke-width:2.47px;"/>
                </g>
            </g>
            <g transform="matrix(3.892044,0,0,3.892044,105.609799,-213.814586)">
                <circle cx="20" cy="120" r="5" style="fill:rgb(232,118,42);"/>
                <g transform="matrix(1,0,0,1,69.512195,-38.414634)">
                    <circle cx="20" cy="120" r="5" style="fill:rgb(232,118,42);"/>
                </g>
                <circle cx="160" cy="120" r="5" style="fill:rgb(232,118,42);"/>
                <g transform="matrix(1,0,0,1,70.426829,38.414634)">
                    <circle cx="20" cy="120" r="5" style="fill:rgb(232,118,42);"/>
                </g>
                <g transform="matrix(1,0,0,1,-0.17734,55.168166)">
                    <circle cx="20" cy="120" r="5" style="fill:rgb(10,45,92);"/>
                </g>
                <g transform="matrix(1,0,0,1,70.426829,93.461952)">
                    <circle cx="20" cy="120" r="5" style="fill:rgb(10,45,92);"/>
                </g>
                <g transform="matrix(1,0,0,1,139.834317,55.168166)">
                    <circle cx="20" cy="120" r="5" style="fill:rgb(10,45,92);"/>
                </g>
            </g>
            <g transform="matrix(3.892044,0,0,3.892044,755.964265,-300.024364)">
                <g transform="matrix(1,0,0,1,-168.65285,-25.259067)">
                    <circle cx="55" cy="148" r="3" style="fill:rgb(10,45,92);"/>
                </g>
                <g transform="matrix(1,0,0,1,-130.631556,59.408568)">
                    <circle cx="90" cy="120" r="3" style="fill:rgb(10,45,92);"/>
                </g>
                <g transform="matrix(1,0,0,1,-180.310881,11.26943)">
                    <circle cx="55" cy="175" r="3" style="fill:rgb(10,45,92);"/>
                </g>
                <g transform="matrix(1,0,0,1,-131.835271,31.391381)">
                    <circle cx="55" cy="175" r="3" style="fill:rgb(10,45,92);"/>
                </g>
                <g transform="matrix(1,0,0,1,-96.373057,-52.849741)">
                    <circle cx="55" cy="175" r="3" style="fill:rgb(10,45,92);"/>
                </g>
                <g transform="matrix(0.836336,0,0,0.836336,-93.943884,58.937087)">
                    <circle cx="20" cy="120" r="5" style="fill:rgb(10,45,92);"/>
                </g>
                <g transform="matrix(1,0,0,1,-92.487047,39.637306)">
                    <circle cx="55" cy="175" r="3" style="fill:rgb(10,45,92);"/>
                </g>
                <g transform="matrix(1,0,0,1,-82.516113,-22.358777)">
                    <circle cx="55" cy="175" r="3" style="fill:rgb(10,45,92);"/>
                </g>
                <g transform="matrix(1,0,0,1,-163.330911,44.366865)">
                    <circle cx="55" cy="175" r="3" style="fill:rgb(10,45,92);"/>
                </g>
                <g transform="matrix(1,0,0,1,-199.740933,16.477632)">
                    <circle cx="90" cy="135" r="3" style="fill:rgb(10,45,92);"/>
                </g>
                <g transform="matrix(1,0,0,1,-148.239374,4.305341)">
                    <circle cx="90" cy="135" r="3" style="fill:rgb(10,45,92);"/>
                </g>
            </g>
        </g>
        <g transform="matrix(1.057393,0,0,0.882022,513.320351,933.401705)">
            <path d="M3.881,0L3.881,-27.837L9.515,-27.837L35.182,-2.671L35.182,-27.837L38.563,-27.837L38.563,0L33.012,0L7.262,-25.291L7.262,0L3.881,0Z" style="fill:rgb(232,118,42);"/>
            <path d="M48.72,0L46.228,0L46.228,-16.737L48.72,-16.737L48.72,0ZM48.72,-20.832L46.228,-20.832L46.228,-23.966L48.72,-23.966L48.72,-20.832Z" style="fill:rgb(10,45,92);"/>
            <path d="M66.49,0.178L63.712,0.214C60.033,0.214 57.368,-0.32 55.718,-1.389C54.068,-2.457 53.243,-4.736 53.243,-8.226C53.243,-9.603 53.296,-10.719 53.403,-11.573C53.51,-12.428 53.866,-13.336 54.471,-14.298C55.077,-15.259 56.068,-15.954 57.445,-16.381C58.822,-16.808 60.424,-17.022 62.252,-17.022L63.748,-16.986C66.17,-16.986 68.009,-16.909 69.268,-16.755C70.526,-16.6 71.642,-16.084 72.615,-15.206C73.588,-14.327 74.075,-12.891 74.075,-10.897L71.476,-10.897C71.476,-11.657 71.357,-12.292 71.119,-12.802C70.882,-13.312 70.514,-13.704 70.015,-13.977C69.517,-14.25 68.793,-14.452 67.843,-14.583C66.894,-14.713 65.671,-14.778 64.175,-14.778L63.748,-14.778C62.015,-14.778 60.81,-14.737 60.134,-14.654C59.457,-14.571 58.721,-14.363 57.926,-14.031C57.13,-13.698 56.62,-13.176 56.394,-12.464C56.169,-11.752 56.032,-11.105 55.985,-10.523C55.937,-9.941 55.914,-9.33 55.914,-8.689L55.914,-8.19C55.914,-6.006 56.204,-4.528 56.786,-3.757C57.368,-2.985 58.157,-2.522 59.154,-2.368C60.151,-2.214 61.065,-2.113 61.896,-2.065C62.727,-2.018 63.617,-1.994 64.567,-1.994C65.089,-1.994 65.713,-2 66.437,-2.012C67.161,-2.024 68.223,-2.196 69.624,-2.528C71.024,-2.861 71.725,-4.012 71.725,-5.983L74.324,-5.983C74.324,-3.609 73.654,-1.988 72.312,-1.122C70.971,-0.255 69.03,0.178 66.49,0.178Z" style="fill:rgb(10,45,92);"/>
            <path d="M88.925,-16.951C91.774,-16.951 93.91,-16.808 95.335,-16.523C96.759,-16.238 97.905,-15.514 98.771,-14.351C99.638,-13.188 100.071,-11.3 100.071,-8.689C100.071,-4.724 99.311,-2.243 97.792,-1.246C96.272,-0.249 93.305,0.249 88.889,0.249C84.972,0.249 82.194,-0.237 80.556,-1.211C78.918,-2.184 78.099,-4.511 78.099,-8.19C78.099,-10.802 78.479,-12.802 79.239,-14.191C79.998,-15.58 81.185,-16.375 82.8,-16.577C84.414,-16.779 85.589,-16.891 86.325,-16.915C87.061,-16.939 87.928,-16.951 88.925,-16.951ZM88.925,-1.959C92.058,-1.959 94.26,-2.232 95.531,-2.778C96.801,-3.324 97.436,-4.926 97.436,-7.585C97.436,-9.65 97.216,-11.265 96.777,-12.428C96.338,-13.591 95.495,-14.256 94.249,-14.422C93.002,-14.588 92.005,-14.683 91.257,-14.707C90.509,-14.731 89.625,-14.743 88.604,-14.743L87.856,-14.743C85.103,-14.743 83.233,-14.375 82.248,-13.639C81.263,-12.903 80.77,-11.146 80.77,-8.369C80.77,-5.71 81.28,-3.971 82.301,-3.152C83.322,-2.332 85.209,-1.923 87.963,-1.923L88.925,-1.959Z" style="fill:rgb(10,45,92);"/>
            <rect x="104.593" y="-23.966" width="2.493" height="23.966" style="fill:rgb(10,45,92);"/>
            <path d="M129.272,-1.959C128.844,-1.223 128.328,-0.706 127.723,-0.41C127.117,-0.113 126.352,0.071 125.426,0.142L120.832,0.249L118.66,0.249C115.716,0.249 113.763,-0.172 112.802,-1.015C111.84,-1.858 111.359,-3.098 111.359,-4.736C111.359,-6.54 111.692,-7.811 112.357,-8.547C113.021,-9.283 113.953,-9.71 115.152,-9.829C116.351,-9.947 117.413,-10.018 118.339,-10.042C119.265,-10.066 120.132,-10.078 120.939,-10.078L125.639,-9.935C126.494,-9.935 127.182,-9.805 127.705,-9.544C128.227,-9.283 128.749,-8.796 129.272,-8.084L129.272,-9.864C129.272,-10.885 129.189,-11.734 129.022,-12.41C128.856,-13.087 128.488,-13.615 127.918,-13.995C127.349,-14.375 126.381,-14.6 125.016,-14.672C123.651,-14.743 122.636,-14.778 121.971,-14.778C121.164,-14.778 120.381,-14.772 119.621,-14.761C118.861,-14.749 118.036,-14.683 117.146,-14.565C116.256,-14.446 115.645,-14.161 115.312,-13.71C114.98,-13.259 114.814,-12.594 114.814,-11.716L112.107,-11.716C112.107,-13.496 112.493,-14.743 113.265,-15.455C114.036,-16.167 115.199,-16.6 116.754,-16.755C118.309,-16.909 119.74,-16.986 121.046,-16.986C122.66,-16.986 124.001,-16.957 125.07,-16.897C126.138,-16.838 127.289,-16.642 128.524,-16.31C129.758,-15.977 130.607,-15.319 131.07,-14.333C131.533,-13.348 131.764,-12.048 131.764,-10.434L131.764,0L129.272,0L129.272,-1.959ZM120.867,-1.959L121.58,-1.959C122.79,-1.959 123.859,-1.988 124.785,-2.048C125.711,-2.107 126.69,-2.279 127.723,-2.564C128.755,-2.849 129.272,-3.656 129.272,-4.985C129.272,-6.125 128.921,-6.855 128.221,-7.176C127.521,-7.496 126.761,-7.698 125.942,-7.781C125.123,-7.864 124.203,-7.906 123.182,-7.906L120.974,-7.87C119.265,-7.87 118.06,-7.834 117.36,-7.763C116.659,-7.692 116.024,-7.549 115.455,-7.336C114.885,-7.122 114.505,-6.796 114.315,-6.357C114.125,-5.917 114.03,-5.377 114.03,-4.736C114.03,-3.882 114.285,-3.217 114.796,-2.742C115.306,-2.267 116.357,-2.03 117.947,-2.03L120.867,-1.959Z" style="fill:rgb(10,45,92);"/>
            <path d="M151.315,-14.636L146.4,-14.778C145.356,-14.778 144.507,-14.767 143.854,-14.743C143.201,-14.719 142.465,-14.648 141.646,-14.529C140.827,-14.41 140.174,-14.191 139.688,-13.87C139.201,-13.55 138.958,-13.01 138.958,-12.25C138.958,-11.229 139.213,-10.559 139.723,-10.238C140.234,-9.918 141.035,-9.757 142.127,-9.757L146.436,-9.65L151.101,-9.65C153.166,-9.65 154.698,-9.324 155.695,-8.671C156.692,-8.018 157.19,-6.73 157.19,-4.807C157.19,-2.6 156.603,-1.217 155.428,-0.659C154.252,-0.101 152.442,0.178 149.997,0.178L145.332,0.249C143.908,0.249 142.821,0.231 142.074,0.196C141.326,0.16 140.4,0.03 139.296,-0.196C138.192,-0.421 137.379,-0.908 136.857,-1.656C136.334,-2.404 136.073,-3.49 136.073,-4.914L136.109,-5.662L138.637,-5.662L138.673,-5.27C138.673,-4.131 138.91,-3.347 139.385,-2.92C139.86,-2.493 140.691,-2.22 141.878,-2.101L146.258,-1.959L147.647,-1.959C149.119,-1.959 150.436,-2.024 151.599,-2.154C152.763,-2.285 153.54,-2.499 153.932,-2.795C154.324,-3.092 154.52,-3.632 154.52,-4.416C154.52,-5.603 154.229,-6.41 153.647,-6.837C153.065,-7.265 152.134,-7.478 150.852,-7.478L146.329,-7.514L142.02,-7.514C140.145,-7.514 138.72,-7.811 137.747,-8.404C136.774,-8.998 136.287,-10.185 136.287,-11.965C136.287,-13.627 136.762,-14.844 137.711,-15.615C138.661,-16.387 139.979,-16.773 141.664,-16.773L146.4,-16.986C147.279,-16.986 148.133,-16.98 148.964,-16.968C149.795,-16.957 150.733,-16.903 151.778,-16.808C153.511,-16.808 154.739,-16.446 155.463,-15.722C156.187,-14.998 156.549,-13.781 156.549,-12.072L154.057,-12.072C153.962,-13.022 153.742,-13.657 153.398,-13.977C153.054,-14.298 152.359,-14.517 151.315,-14.636Z" style="fill:rgb(10,45,92);"/>
            <path d="M197.236,-27.837L202.995,-27.837L182.545,-14.398L204.372,0L198.279,0L178.956,-13.021L174.031,-13.021L174.031,0L170.651,0L170.651,-27.837L174.031,-27.837L174.031,-15.817L178.956,-15.817L197.236,-27.837Z" style="fill:rgb(232,118,42);"/>
            <path d="M208.086,-13.781C208.419,-14.778 209.066,-15.562 210.027,-16.132C210.988,-16.701 212.561,-16.986 214.745,-16.986C217.927,-16.986 220.152,-16.589 221.422,-15.793C222.693,-14.998 223.328,-13.117 223.328,-10.149L223.292,-9.366L220.835,-9.366C220.835,-11.478 220.508,-12.909 219.856,-13.657C219.203,-14.405 217.808,-14.778 215.671,-14.778L214.817,-14.778C212.395,-14.778 210.668,-14.44 209.635,-13.764C208.603,-13.087 208.086,-11.621 208.086,-9.366L208.086,0L205.593,0L205.593,-16.737L208.086,-16.737L208.086,-13.781Z" style="fill:rgb(10,45,92);"/>
            <path d="M231.696,-2.279C232.076,-2.208 232.681,-2.137 233.512,-2.065C234.343,-1.994 235.328,-1.959 236.468,-1.959L237.821,-1.959C239.056,-1.959 240.029,-1.994 240.741,-2.065C241.453,-2.137 242.094,-2.297 242.664,-2.546C243.234,-2.795 243.649,-3.122 243.911,-3.525C244.172,-3.929 244.326,-4.428 244.373,-5.021L247.009,-5.021C247.009,-2.813 246.124,-1.383 244.356,-0.73C242.587,-0.077 240.302,0.249 237.501,0.249C234.438,0.249 232.171,0.113 230.699,-0.16C229.227,-0.433 228.022,-1.169 227.085,-2.368C226.147,-3.567 225.678,-5.555 225.678,-8.333C225.678,-11.775 226.337,-14.084 227.654,-15.259C228.972,-16.434 231.364,-17.022 234.83,-17.022L236.539,-16.986C239.222,-16.986 241.246,-16.838 242.611,-16.541C243.976,-16.244 245.056,-15.514 245.851,-14.351C246.647,-13.188 247.044,-11.336 247.044,-8.796L247.009,-7.941L228.171,-7.941C228.171,-6.303 228.396,-5.027 228.847,-4.113C229.298,-3.199 230.248,-2.588 231.696,-2.279ZM237.572,-14.778L235.613,-14.778C234.236,-14.778 233.014,-14.701 231.945,-14.547C230.877,-14.393 230.076,-14.09 229.542,-13.639C229.007,-13.188 228.657,-12.671 228.491,-12.09C228.325,-11.508 228.242,-10.838 228.242,-10.078L244.445,-10.078C244.445,-10.814 244.373,-11.467 244.231,-12.036C244.089,-12.606 243.804,-13.087 243.376,-13.479C242.949,-13.87 242.278,-14.185 241.364,-14.422C240.45,-14.66 239.186,-14.778 237.572,-14.778Z" style="fill:rgb(10,45,92);"/>
            <path d="M269.194,-3.241C268.767,-2.149 267.995,-1.294 266.879,-0.677C265.764,-0.059 263.983,0.249 261.538,0.249C257.502,0.249 254.837,-0.309 253.543,-1.424C252.249,-2.54 251.602,-4.19 251.602,-6.374L251.602,-16.737L254.095,-16.737L254.095,-7.585C254.095,-5.14 254.612,-3.591 255.644,-2.938C256.677,-2.285 258.499,-1.959 261.11,-1.959C263.841,-1.959 265.87,-2.285 267.2,-2.938C268.529,-3.591 269.194,-5.14 269.194,-7.585L269.194,-16.737L271.687,-16.737L271.687,0L269.194,0L269.194,-3.241Z" style="fill:rgb(10,45,92);"/>
            <path d="M291.451,-14.6L279.877,-14.6L279.877,-6.552C279.877,-4.677 280.198,-3.442 280.839,-2.849C281.48,-2.255 282.738,-1.959 284.614,-1.959C286.323,-1.959 287.581,-2.166 288.388,-2.582C289.195,-2.997 289.599,-3.965 289.599,-5.484L289.563,-7.371L291.878,-7.371C291.878,-4.285 291.504,-2.243 290.756,-1.246C290.009,-0.249 288.056,0.249 284.898,0.249C282.287,0.249 280.382,-0.089 279.183,-0.766C277.984,-1.442 277.385,-2.979 277.385,-5.377L277.385,-14.6L273.325,-14.6L273.325,-16.737L277.385,-16.737L277.385,-20.512L279.877,-20.512L279.877,-16.737L291.451,-16.737L291.451,-14.6Z" style="fill:rgb(10,45,92);"/>
            <path d="M296.792,-2.137L312.069,-2.137L312.069,0L293.196,0L293.196,-2.528L308.544,-14.707L293.908,-14.707L293.908,-16.844L312.069,-16.844L312.069,-14.351L296.792,-2.137Z" style="fill:rgb(10,45,92);"/>
        </g>
        <g transform="matrix(4.12148,0,0,3.437925,517.550551,966.872172)">
            <path d="M2.378,-3.773L2.378,-4.559C2.506,-4.559 2.684,-4.561 2.914,-4.565C3.143,-4.569 3.315,-4.572 3.43,-4.572C3.789,-4.572 4.066,-4.588 4.262,-4.622C4.458,-4.655 4.61,-4.721 4.719,-4.818C4.828,-4.916 4.904,-5.062 4.946,-5.256C4.989,-5.451 5.01,-5.719 5.01,-6.061C5.01,-6.543 4.941,-6.884 4.804,-7.083C4.666,-7.282 4.367,-7.393 3.906,-7.417C3.606,-7.426 3.159,-7.43 2.566,-7.43C1.918,-7.43 1.496,-7.323 1.301,-7.109C1.115,-6.923 1.022,-6.627 1.022,-6.22C1.022,-6.159 1.027,-6.07 1.037,-5.951C1.046,-5.832 1.051,-5.731 1.051,-5.649L0.198,-5.649C0.198,-6.311 0.267,-6.824 0.404,-7.188C0.541,-7.553 0.785,-7.815 1.136,-7.974C1.486,-8.133 1.985,-8.212 2.631,-8.212L3.017,-8.212C3.565,-8.212 3.994,-8.197 4.304,-8.168C4.614,-8.139 4.899,-8.061 5.157,-7.933C5.416,-7.805 5.615,-7.599 5.756,-7.313C5.896,-7.028 5.967,-6.641 5.967,-6.152C5.967,-5.427 5.852,-4.923 5.623,-4.64C5.428,-4.393 5.078,-4.242 4.572,-4.186C4.978,-4.134 5.292,-4.043 5.513,-3.915C5.733,-3.786 5.888,-3.601 5.978,-3.361C6.068,-3.121 6.113,-2.794 6.113,-2.378C6.113,-1.935 6.081,-1.559 6.017,-1.251C5.953,-0.943 5.813,-0.678 5.595,-0.457C5.378,-0.237 5.059,-0.097 4.64,-0.039C4.179,0.03 3.647,0.065 3.043,0.065C2.535,0.065 2.109,0.043 1.765,0C1.421,-0.043 1.119,-0.138 0.86,-0.284C0.6,-0.43 0.399,-0.654 0.255,-0.957C0.111,-1.26 0.039,-1.668 0.039,-2.18L0.039,-2.657L0.944,-2.657L0.944,-2.18C0.944,-1.836 0.972,-1.564 1.027,-1.363C1.082,-1.162 1.197,-1.008 1.372,-0.902C1.548,-0.796 1.808,-0.739 2.154,-0.73C2.295,-0.73 2.51,-0.726 2.8,-0.717C3.09,-0.708 3.308,-0.704 3.455,-0.704C3.955,-0.704 4.322,-0.745 4.557,-0.826C4.792,-0.907 4.952,-1.059 5.039,-1.283C5.125,-1.507 5.169,-1.863 5.169,-2.352C5.169,-2.774 5.116,-3.086 5.01,-3.288C4.904,-3.491 4.738,-3.622 4.512,-3.683C4.286,-3.743 3.955,-3.773 3.52,-3.773L2.378,-3.773Z" style="fill:rgb(232,118,42);stroke:rgb(232,118,42);stroke-width:0.26px;stroke-linejoin:round;stroke-miterlimit:2;"/>
            <path d="M6.937,0L6.937,-8.147L10.697,-8.147C11.294,-8.147 11.787,-8.074 12.175,-7.928C12.563,-7.782 12.865,-7.565 13.08,-7.278C13.295,-6.99 13.446,-6.636 13.533,-6.215C13.619,-5.794 13.663,-5.278 13.663,-4.666L13.663,-3.894C13.663,-3.074 13.604,-2.391 13.487,-1.846C13.371,-1.301 13.112,-0.857 12.712,-0.514C12.312,-0.171 11.716,0 10.924,0L6.937,0ZM7.826,-0.798L10.486,-0.798C10.919,-0.798 11.283,-0.827 11.58,-0.886C11.876,-0.944 12.114,-1.083 12.293,-1.301C12.603,-1.71 12.757,-2.468 12.757,-3.576L12.757,-3.962C12.757,-4.829 12.726,-5.466 12.663,-5.873C12.592,-6.457 12.395,-6.844 12.073,-7.036C11.75,-7.227 11.283,-7.323 10.671,-7.323L7.826,-7.323L7.826,-0.798Z" style="fill:rgb(232,118,42);stroke:rgb(232,118,42);stroke-width:0.26px;stroke-linejoin:round;stroke-miterlimit:2;"/>
            <path d="M17.099,-7.314L17.099,-4.501L21.03,-4.501L21.03,-3.73L17.099,-3.73L17.099,0L16.172,0L16.172,-8.138L21.15,-8.138L21.15,-7.314L17.099,-7.314Z" style="fill:rgb(10,45,92);"/>
            <path d="M22.209,-3.928L22.209,-4.407C22.209,-5.09 22.229,-5.642 22.269,-6.062C22.309,-6.482 22.41,-6.856 22.573,-7.185C22.736,-7.513 23.001,-7.77 23.366,-7.955C23.731,-8.139 24.231,-8.232 24.866,-8.232L25.249,-8.232C25.875,-8.232 26.384,-8.203 26.775,-8.146C27.166,-8.089 27.496,-7.971 27.765,-7.793C28.034,-7.614 28.238,-7.34 28.376,-6.971C28.514,-6.602 28.583,-6.106 28.583,-5.483C28.583,-4.209 28.578,-3.24 28.567,-2.576C28.554,-2.069 28.5,-1.648 28.403,-1.316C28.307,-0.983 28.155,-0.712 27.947,-0.504C27.738,-0.295 27.46,-0.144 27.114,-0.049C26.767,0.046 26.336,0.094 25.822,0.094C25.747,0.094 25.635,0.089 25.488,0.079C25.341,0.07 25.218,0.065 25.119,0.065C24.624,0.065 24.209,0.033 23.873,-0.029C23.537,-0.092 23.252,-0.207 23.019,-0.374C22.786,-0.542 22.604,-0.784 22.473,-1.1C22.342,-1.417 22.264,-1.829 22.238,-2.337C22.218,-2.7 22.209,-3.23 22.209,-3.928ZM23.152,-3.97L23.152,-2.667C23.165,-2.123 23.221,-1.714 23.322,-1.441C23.422,-1.167 23.607,-0.976 23.874,-0.867C24.142,-0.758 24.547,-0.703 25.09,-0.703C25.617,-0.703 26.027,-0.72 26.321,-0.753C26.615,-0.787 26.859,-0.869 27.054,-0.998C27.248,-1.128 27.393,-1.332 27.49,-1.611C27.586,-1.889 27.64,-2.273 27.653,-2.761C27.671,-3.353 27.679,-4.247 27.679,-5.441C27.679,-6.087 27.606,-6.55 27.459,-6.83C27.312,-7.11 27.088,-7.283 26.786,-7.349C26.485,-7.414 25.995,-7.447 25.317,-7.447L24.999,-7.447C24.493,-7.447 24.117,-7.402 23.87,-7.311C23.622,-7.221 23.446,-7.037 23.34,-6.76C23.234,-6.484 23.176,-6.048 23.165,-5.454L23.152,-3.97Z" style="fill:rgb(10,45,92);"/>
            <path d="M29.723,0L29.723,-8.138L33.561,-8.138C34.414,-8.138 35.025,-7.959 35.395,-7.601C35.764,-7.244 35.949,-6.635 35.949,-5.775C35.949,-5.321 35.925,-4.968 35.878,-4.714C35.83,-4.46 35.705,-4.237 35.503,-4.045C35.301,-3.852 34.981,-3.716 34.543,-3.636C35.409,-3.576 35.842,-3.058 35.842,-2.084L35.842,0L34.899,0L34.899,-1.873C34.899,-2.396 34.779,-2.763 34.539,-2.975C34.299,-3.187 33.911,-3.293 33.373,-3.293L30.611,-3.293L30.611,0L29.723,0ZM30.611,-4.048L33.253,-4.048C33.68,-4.048 34.019,-4.088 34.267,-4.168C34.516,-4.248 34.699,-4.397 34.816,-4.617C34.934,-4.836 34.993,-5.146 34.993,-5.548C34.993,-6.006 34.964,-6.355 34.906,-6.595C34.847,-6.835 34.716,-7.017 34.513,-7.141C34.31,-7.265 33.993,-7.327 33.561,-7.327L30.611,-7.327L30.611,-4.048Z" style="fill:rgb(10,45,92);"/>
            <path d="M45.943,-8.138L45.943,0L45.013,0L45.013,-7.473L41.947,0L41.033,0L37.925,-7.408L37.925,0L37.037,0L37.037,-8.138L38.616,-8.138L41.471,-1.196L44.352,-8.138L45.943,-8.138Z" style="fill:rgb(10,45,92);"/>
            <path d="M52.712,-1.74L48.623,-1.74L48.013,0L47.031,0L50.003,-8.138L51.306,-8.138L54.317,0L53.361,0L52.712,-1.74ZM52.473,-2.469L50.668,-7.473L48.875,-2.469L52.473,-2.469Z" style="fill:rgb(10,45,92);"/>
            <path d="M58.873,-7.263L58.873,0L57.942,0L57.942,-7.263L55.314,-7.263L55.314,-8.138L61.475,-8.138L61.475,-7.263L58.873,-7.263Z" style="fill:rgb(10,45,92);"/>
            <rect x="62.589" y="-8.138" width="0.914" height="8.138" style="fill:rgb(10,45,92);"/>
            <path d="M64.552,-3.928L64.552,-4.407C64.552,-5.09 64.572,-5.642 64.612,-6.062C64.652,-6.482 64.754,-6.856 64.917,-7.185C65.08,-7.513 65.344,-7.77 65.709,-7.955C66.075,-8.139 66.575,-8.232 67.21,-8.232L67.592,-8.232C68.219,-8.232 68.728,-8.203 69.119,-8.146C69.51,-8.089 69.84,-7.971 70.109,-7.793C70.378,-7.614 70.581,-7.34 70.72,-6.971C70.858,-6.602 70.927,-6.106 70.927,-5.483C70.927,-4.209 70.922,-3.24 70.911,-2.576C70.898,-2.069 70.843,-1.648 70.747,-1.316C70.651,-0.983 70.499,-0.712 70.29,-0.504C70.082,-0.295 69.804,-0.144 69.457,-0.049C69.111,0.046 68.68,0.094 68.166,0.094C68.09,0.094 67.979,0.089 67.832,0.079C67.685,0.07 67.562,0.065 67.463,0.065C66.968,0.065 66.553,0.033 66.217,-0.029C65.881,-0.092 65.596,-0.207 65.363,-0.374C65.129,-0.542 64.947,-0.784 64.817,-1.1C64.686,-1.417 64.608,-1.829 64.582,-2.337C64.562,-2.7 64.552,-3.23 64.552,-3.928ZM65.495,-3.97L65.495,-2.667C65.508,-2.123 65.565,-1.714 65.666,-1.441C65.766,-1.167 65.95,-0.976 66.218,-0.867C66.486,-0.758 66.891,-0.703 67.433,-0.703C67.961,-0.703 68.371,-0.72 68.665,-0.753C68.959,-0.787 69.203,-0.869 69.397,-0.998C69.592,-1.128 69.737,-1.332 69.833,-1.611C69.929,-1.889 69.984,-2.273 69.997,-2.761C70.014,-3.353 70.023,-4.247 70.023,-5.441C70.023,-6.087 69.949,-6.55 69.803,-6.83C69.656,-7.11 69.431,-7.283 69.13,-7.349C68.829,-7.414 68.339,-7.447 67.66,-7.447L67.343,-7.447C66.837,-7.447 66.461,-7.402 66.213,-7.311C65.966,-7.221 65.789,-7.037 65.683,-6.76C65.578,-6.484 65.519,-6.048 65.508,-5.454L65.495,-3.97Z" style="fill:rgb(10,45,92);"/>
            <path d="M79.009,-8.138L79.009,0L77.521,0L72.955,-7.353L72.955,0L72.067,0L72.067,-8.138L73.542,-8.138L78.121,-0.703L78.121,-8.138L79.009,-8.138Z" style="fill:rgb(10,45,92);"/>
        </g>
    </g>
</svg>
