<?xml version="1.0" encoding="UTF-8" standalone="no"?>
<!DOCTYPE svg PUBLIC "-//W3C//DTD SVG 1.1//EN" "http://www.w3.org/Graphics/SVG/1.1/DTD/svg11.dtd">
<svg width="100%" height="100%" viewBox="0 0 978 75" version="1.1" xmlns="http://www.w3.org/2000/svg" xmlns:xlink="http://www.w3.org/1999/xlink" xml:space="preserve" xmlns:serif="http://www.serif.com/" style="fill-rule:evenodd;clip-rule:evenodd;stroke-linejoin:round;stroke-miterlimit:2;">
    <g transform="matrix(1,0,0,1,-865.672731,-1012.029016)">
        <g transform="matrix(3.172179,0,0,2.646067,853.36057,1085.687091)">
            <path d="M3.881,0L3.881,-27.837L9.515,-27.837L35.182,-2.671L35.182,-27.837L38.563,-27.837L38.563,0L33.012,0L7.262,-25.291L7.262,0L3.881,0Z" style="fill:rgb(232,118,42);"/>
            <path d="M48.72,0L46.228,0L46.228,-16.737L48.72,-16.737L48.72,0ZM48.72,-20.832L46.228,-20.832L46.228,-23.966L48.72,-23.966L48.72,-20.832Z" style="fill:rgb(10,45,92);"/>
            <path d="M66.49,0.178L63.712,0.214C60.033,0.214 57.368,-0.32 55.718,-1.389C54.068,-2.457 53.243,-4.736 53.243,-8.226C53.243,-9.603 53.296,-10.719 53.403,-11.573C53.51,-12.428 53.866,-13.336 54.471,-14.298C55.077,-15.259 56.068,-15.954 57.445,-16.381C58.822,-16.808 60.424,-17.022 62.252,-17.022L63.748,-16.986C66.17,-16.986 68.009,-16.909 69.268,-16.755C70.526,-16.6 71.642,-16.084 72.615,-15.206C73.588,-14.327 74.075,-12.891 74.075,-10.897L71.476,-10.897C71.476,-11.657 71.357,-12.292 71.119,-12.802C70.882,-13.312 70.514,-13.704 70.015,-13.977C69.517,-14.25 68.793,-14.452 67.843,-14.583C66.894,-14.713 65.671,-14.778 64.175,-14.778L63.748,-14.778C62.015,-14.778 60.81,-14.737 60.134,-14.654C59.457,-14.571 58.721,-14.363 57.926,-14.031C57.13,-13.698 56.62,-13.176 56.394,-12.464C56.169,-11.752 56.032,-11.105 55.985,-10.523C55.937,-9.941 55.914,-9.33 55.914,-8.689L55.914,-8.19C55.914,-6.006 56.204,-4.528 56.786,-3.757C57.368,-2.985 58.157,-2.522 59.154,-2.368C60.151,-2.214 61.065,-2.113 61.896,-2.065C62.727,-2.018 63.617,-1.994 64.567,-1.994C65.089,-1.994 65.713,-2 66.437,-2.012C67.161,-2.024 68.223,-2.196 69.624,-2.528C71.024,-2.861 71.725,-4.012 71.725,-5.983L74.324,-5.983C74.324,-3.609 73.654,-1.988 72.312,-1.122C70.971,-0.255 69.03,0.178 66.49,0.178Z" style="fill:rgb(10,45,92);"/>
            <path d="M88.925,-16.951C91.774,-16.951 93.91,-16.808 95.335,-16.523C96.759,-16.238 97.905,-15.514 98.771,-14.351C99.638,-13.188 100.071,-11.3 100.071,-8.689C100.071,-4.724 99.311,-2.243 97.792,-1.246C96.272,-0.249 93.305,0.249 88.889,0.249C84.972,0.249 82.194,-0.237 80.556,-1.211C78.918,-2.184 78.099,-4.511 78.099,-8.19C78.099,-10.802 78.479,-12.802 79.239,-14.191C79.998,-15.58 81.185,-16.375 82.8,-16.577C84.414,-16.779 85.589,-16.891 86.325,-16.915C87.061,-16.939 87.928,-16.951 88.925,-16.951ZM88.925,-1.959C92.058,-1.959 94.26,-2.232 95.531,-2.778C96.801,-3.324 97.436,-4.926 97.436,-7.585C97.436,-9.65 97.216,-11.265 96.777,-12.428C96.338,-13.591 95.495,-14.256 94.249,-14.422C93.002,-14.588 92.005,-14.683 91.257,-14.707C90.509,-14.731 89.625,-14.743 88.604,-14.743L87.856,-14.743C85.103,-14.743 83.233,-14.375 82.248,-13.639C81.263,-12.903 80.77,-11.146 80.77,-8.369C80.77,-5.71 81.28,-3.971 82.301,-3.152C83.322,-2.332 85.209,-1.923 87.963,-1.923L88.925,-1.959Z" style="fill:rgb(10,45,92);"/>
            <rect x="104.593" y="-23.966" width="2.493" height="23.966" style="fill:rgb(10,45,92);"/>
            <path d="M129.272,-1.959C128.844,-1.223 128.328,-0.706 127.723,-0.41C127.117,-0.113 126.352,0.071 125.426,0.142L120.832,0.249L118.66,0.249C115.716,0.249 113.763,-0.172 112.802,-1.015C111.84,-1.858 111.359,-3.098 111.359,-4.736C111.359,-6.54 111.692,-7.811 112.357,-8.547C113.021,-9.283 113.953,-9.71 115.152,-9.829C116.351,-9.947 117.413,-10.018 118.339,-10.042C119.265,-10.066 120.132,-10.078 120.939,-10.078L125.639,-9.935C126.494,-9.935 127.182,-9.805 127.705,-9.544C128.227,-9.283 128.749,-8.796 129.272,-8.084L129.272,-9.864C129.272,-10.885 129.189,-11.734 129.022,-12.41C128.856,-13.087 128.488,-13.615 127.918,-13.995C127.349,-14.375 126.381,-14.6 125.016,-14.672C123.651,-14.743 122.636,-14.778 121.971,-14.778C121.164,-14.778 120.381,-14.772 119.621,-14.761C118.861,-14.749 118.036,-14.683 117.146,-14.565C116.256,-14.446 115.645,-14.161 115.312,-13.71C114.98,-13.259 114.814,-12.594 114.814,-11.716L112.107,-11.716C112.107,-13.496 112.493,-14.743 113.265,-15.455C114.036,-16.167 115.199,-16.6 116.754,-16.755C118.309,-16.909 119.74,-16.986 121.046,-16.986C122.66,-16.986 124.001,-16.957 125.07,-16.897C126.138,-16.838 127.289,-16.642 128.524,-16.31C129.758,-15.977 130.607,-15.319 131.07,-14.333C131.533,-13.348 131.764,-12.048 131.764,-10.434L131.764,0L129.272,0L129.272,-1.959ZM120.867,-1.959L121.58,-1.959C122.79,-1.959 123.859,-1.988 124.785,-2.048C125.711,-2.107 126.69,-2.279 127.723,-2.564C128.755,-2.849 129.272,-3.656 129.272,-4.985C129.272,-6.125 128.921,-6.855 128.221,-7.176C127.521,-7.496 126.761,-7.698 125.942,-7.781C125.123,-7.864 124.203,-7.906 123.182,-7.906L120.974,-7.87C119.265,-7.87 118.06,-7.834 117.36,-7.763C116.659,-7.692 116.024,-7.549 115.455,-7.336C114.885,-7.122 114.505,-6.796 114.315,-6.357C114.125,-5.917 114.03,-5.377 114.03,-4.736C114.03,-3.882 114.285,-3.217 114.796,-2.742C115.306,-2.267 116.357,-2.03 117.947,-2.03L120.867,-1.959Z" style="fill:rgb(10,45,92);"/>
            <path d="M151.315,-14.636L146.4,-14.778C145.356,-14.778 144.507,-14.767 143.854,-14.743C143.201,-14.719 142.465,-14.648 141.646,-14.529C140.827,-14.41 140.174,-14.191 139.688,-13.87C139.201,-13.55 138.958,-13.01 138.958,-12.25C138.958,-11.229 139.213,-10.559 139.723,-10.238C140.234,-9.918 141.035,-9.757 142.127,-9.757L146.436,-9.65L151.101,-9.65C153.166,-9.65 154.698,-9.324 155.695,-8.671C156.692,-8.018 157.19,-6.73 157.19,-4.807C157.19,-2.6 156.603,-1.217 155.428,-0.659C154.252,-0.101 152.442,0.178 149.997,0.178L145.332,0.249C143.908,0.249 142.821,0.231 142.074,0.196C141.326,0.16 140.4,0.03 139.296,-0.196C138.192,-0.421 137.379,-0.908 136.857,-1.656C136.334,-2.404 136.073,-3.49 136.073,-4.914L136.109,-5.662L138.637,-5.662L138.673,-5.27C138.673,-4.131 138.91,-3.347 139.385,-2.92C139.86,-2.493 140.691,-2.22 141.878,-2.101L146.258,-1.959L147.647,-1.959C149.119,-1.959 150.436,-2.024 151.599,-2.154C152.763,-2.285 153.54,-2.499 153.932,-2.795C154.324,-3.092 154.52,-3.632 154.52,-4.416C154.52,-5.603 154.229,-6.41 153.647,-6.837C153.065,-7.265 152.134,-7.478 150.852,-7.478L146.329,-7.514L142.02,-7.514C140.145,-7.514 138.72,-7.811 137.747,-8.404C136.774,-8.998 136.287,-10.185 136.287,-11.965C136.287,-13.627 136.762,-14.844 137.711,-15.615C138.661,-16.387 139.979,-16.773 141.664,-16.773L146.4,-16.986C147.279,-16.986 148.133,-16.98 148.964,-16.968C149.795,-16.957 150.733,-16.903 151.778,-16.808C153.511,-16.808 154.739,-16.446 155.463,-15.722C156.187,-14.998 156.549,-13.781 156.549,-12.072L154.057,-12.072C153.962,-13.022 153.742,-13.657 153.398,-13.977C153.054,-14.298 152.359,-14.517 151.315,-14.636Z" style="fill:rgb(10,45,92);"/>
            <path d="M197.236,-27.837L202.995,-27.837L182.545,-14.398L204.372,0L198.279,0L178.956,-13.021L174.031,-13.021L174.031,0L170.651,0L170.651,-27.837L174.031,-27.837L174.031,-15.817L178.956,-15.817L197.236,-27.837Z" style="fill:rgb(232,118,42);"/>
            <path d="M208.086,-13.781C208.419,-14.778 209.066,-15.562 210.027,-16.132C210.988,-16.701 212.561,-16.986 214.745,-16.986C217.927,-16.986 220.152,-16.589 221.422,-15.793C222.693,-14.998 223.328,-13.117 223.328,-10.149L223.292,-9.366L220.835,-9.366C220.835,-11.478 220.508,-12.909 219.856,-13.657C219.203,-14.405 217.808,-14.778 215.671,-14.778L214.817,-14.778C212.395,-14.778 210.668,-14.44 209.635,-13.764C208.603,-13.087 208.086,-11.621 208.086,-9.366L208.086,0L205.593,0L205.593,-16.737L208.086,-16.737L208.086,-13.781Z" style="fill:rgb(10,45,92);"/>
            <path d="M231.696,-2.279C232.076,-2.208 232.681,-2.137 233.512,-2.065C234.343,-1.994 235.328,-1.959 236.468,-1.959L237.821,-1.959C239.056,-1.959 240.029,-1.994 240.741,-2.065C241.453,-2.137 242.094,-2.297 242.664,-2.546C243.234,-2.795 243.649,-3.122 243.911,-3.525C244.172,-3.929 244.326,-4.428 244.373,-5.021L247.009,-5.021C247.009,-2.813 246.124,-1.383 244.356,-0.73C242.587,-0.077 240.302,0.249 237.501,0.249C234.438,0.249 232.171,0.113 230.699,-0.16C229.227,-0.433 228.022,-1.169 227.085,-2.368C226.147,-3.567 225.678,-5.555 225.678,-8.333C225.678,-11.775 226.337,-14.084 227.654,-15.259C228.972,-16.434 231.364,-17.022 234.83,-17.022L236.539,-16.986C239.222,-16.986 241.246,-16.838 242.611,-16.541C243.976,-16.244 245.056,-15.514 245.851,-14.351C246.647,-13.188 247.044,-11.336 247.044,-8.796L247.009,-7.941L228.171,-7.941C228.171,-6.303 228.396,-5.027 228.847,-4.113C229.298,-3.199 230.248,-2.588 231.696,-2.279ZM237.572,-14.778L235.613,-14.778C234.236,-14.778 233.014,-14.701 231.945,-14.547C230.877,-14.393 230.076,-14.09 229.542,-13.639C229.007,-13.188 228.657,-12.671 228.491,-12.09C228.325,-11.508 228.242,-10.838 228.242,-10.078L244.445,-10.078C244.445,-10.814 244.373,-11.467 244.231,-12.036C244.089,-12.606 243.804,-13.087 243.376,-13.479C242.949,-13.87 242.278,-14.185 241.364,-14.422C240.45,-14.66 239.186,-14.778 237.572,-14.778Z" style="fill:rgb(10,45,92);"/>
            <path d="M269.194,-3.241C268.767,-2.149 267.995,-1.294 266.879,-0.677C265.764,-0.059 263.983,0.249 261.538,0.249C257.502,0.249 254.837,-0.309 253.543,-1.424C252.249,-2.54 251.602,-4.19 251.602,-6.374L251.602,-16.737L254.095,-16.737L254.095,-7.585C254.095,-5.14 254.612,-3.591 255.644,-2.938C256.677,-2.285 258.499,-1.959 261.11,-1.959C263.841,-1.959 265.87,-2.285 267.2,-2.938C268.529,-3.591 269.194,-5.14 269.194,-7.585L269.194,-16.737L271.687,-16.737L271.687,0L269.194,0L269.194,-3.241Z" style="fill:rgb(10,45,92);"/>
            <path d="M291.451,-14.6L279.877,-14.6L279.877,-6.552C279.877,-4.677 280.198,-3.442 280.839,-2.849C281.48,-2.255 282.738,-1.959 284.614,-1.959C286.323,-1.959 287.581,-2.166 288.388,-2.582C289.195,-2.997 289.599,-3.965 289.599,-5.484L289.563,-7.371L291.878,-7.371C291.878,-4.285 291.504,-2.243 290.756,-1.246C290.009,-0.249 288.056,0.249 284.898,0.249C282.287,0.249 280.382,-0.089 279.183,-0.766C277.984,-1.442 277.385,-2.979 277.385,-5.377L277.385,-14.6L273.325,-14.6L273.325,-16.737L277.385,-16.737L277.385,-20.512L279.877,-20.512L279.877,-16.737L291.451,-16.737L291.451,-14.6Z" style="fill:rgb(10,45,92);"/>
            <path d="M296.792,-2.137L312.069,-2.137L312.069,0L293.196,0L293.196,-2.528L308.544,-14.707L293.908,-14.707L293.908,-16.844L312.069,-16.844L312.069,-14.351L296.792,-2.137Z" style="fill:rgb(10,45,92);"/>
        </g>
    </g>
</svg>
