<?xml version="1.0" encoding="UTF-8" standalone="no"?>
<!DOCTYPE svg PUBLIC "-//W3C//DTD SVG 1.1//EN" "http://www.w3.org/Graphics/SVG/1.1/DTD/svg11.dtd">
<svg width="100%" height="100%" viewBox="0 0 166 157" version="1.1" xmlns="http://www.w3.org/2000/svg" xmlns:xlink="http://www.w3.org/1999/xlink" xml:space="preserve" xmlns:serif="http://www.serif.com/" style="fill-rule:evenodd;clip-rule:evenodd;">
    <g transform="matrix(1,0,0,1,0.000047,0.000019)">
        <g transform="matrix(1.101577,0,0,1.101577,-16.8854,-85.28051)">
            <path d="M20,120L90,80L160,120L160,175L90,215L20,175L20,120Z" style="fill:none;"/>
        </g>
        <g transform="matrix(1.101577,0,0,1.123781,-15.701161,-87.310438)">
            <path d="M20,120L90,80L160,120L90,160L20,120Z" style="fill:rgb(232,118,42);fill-opacity:0.07;"/>
        </g>
        <g transform="matrix(1.101577,0,0,1.101577,-15.320807,-84.011291)">
            <path d="M160,120L160,175L90,215L90,160L160,120Z" style="fill:rgb(10,45,92);fill-opacity:0.12;"/>
        </g>
        <g transform="matrix(1.049144,-0.266598,0.13364,0.546349,31.943417,5.697481)">
            <path d="M55,100L106.487,128.034" style="fill:none;stroke:rgb(10,45,92);stroke-width:0.59px;"/>
        </g>
        <g transform="matrix(1.463753,-0.071054,0.700669,1.287123,-31.219548,-87.497216)">
            <path d="M20,120L55,155" style="fill:none;stroke:rgb(10,45,92);stroke-width:0.29px;"/>
        </g>
        <g transform="matrix(0.670376,-1.286475,1.449308,0.062675,-179.044641,126.870153)">
            <path d="M20,120L55,155" style="fill:none;stroke:rgb(10,45,92);stroke-width:0.29px;"/>
        </g>
        <g transform="matrix(0.963122,-0.24474,0.255685,1.045295,-33.967192,-63.535164)">
            <path d="M55,100L106.487,128.034" style="fill:none;stroke:rgb(10,45,92);stroke-width:0.47px;"/>
        </g>
        <g transform="matrix(-0.558759,0.141987,0.319312,1.305417,101.810884,-91.673906)">
            <path d="M55,100L106.487,128.034" style="fill:none;stroke:rgb(10,45,92);stroke-width:0.49px;"/>
        </g>
        <g transform="matrix(1.788332,0.932425,0.607291,1.938692,-87.729374,-292.20768)">
            <path d="M20,155L55,190" style="fill:none;stroke:rgb(10,45,92);stroke-width:0.26px;"/>
        </g>
        <g transform="matrix(2.190108,0,0,0.502274,-192.63366,-9.451756)">
            <path d="M90,115L125,150" style="fill:none;stroke:rgb(10,45,92);stroke-width:0.32px;"/>
        </g>
        <g transform="matrix(-1.136638,0,0,1.138269,224.493799,-104.851086)">
            <path d="M90,115L125,150" style="fill:none;stroke:rgb(10,45,92);stroke-width:0.44px;"/>
        </g>
        <g transform="matrix(-1.051023,0,0,-2.335245,253.174752,377.221302)">
            <path d="M90,115L125,150" style="fill:none;stroke:rgb(10,45,92);stroke-width:0.28px;"/>
        </g>
        <g transform="matrix(2.254692,0,0,-0.295405,-120.656834,152.579444)">
            <path d="M90,115L125,150" style="fill:none;stroke:rgb(10,45,92);stroke-width:0.31px;"/>
        </g>
        <g transform="matrix(1.264454,0,0,-0.143715,-109.324807,125.623464)">
            <path d="M90,115L180.777,255.16" style="fill:none;stroke:rgb(10,45,92);stroke-width:0.56px;"/>
        </g>
        <g transform="matrix(1.101577,0,0,1.101577,181.441794,-26.146639)">
            <g transform="matrix(0.489267,0,0,-0.979022,-182.920059,224.090105)">
                <path d="M127.108,81.619L123.145,150" style="fill:none;stroke:rgb(10,45,92);stroke-width:0.59px;"/>
            </g>
        </g>
        <g transform="matrix(0.538965,0,0,-1.078468,-20.058716,220.705842)">
            <path d="M90,115L125,150" style="fill:none;stroke:rgb(10,45,92);stroke-width:0.59px;"/>
        </g>
        <g transform="matrix(1.095611,0,0,-1.139472,23.372142,220.971338)">
            <path d="M90,115L125,150" style="fill:none;stroke:rgb(10,45,92);stroke-width:0.45px;"/>
        </g>
        <g transform="matrix(1.101577,0,0,0.859456,-16.328358,-63.710765)">
            <path d="M90,80L90,151.158" style="fill:none;stroke:rgb(10,45,92);stroke-width:0.51px;"/>
        </g>
        <g transform="matrix(1.101577,0,0,1.101577,-16.328347,-84.364689)">
            <path d="M18.872,118.026L88.872,78.026C89.571,77.627 90.429,77.627 91.128,78.026L161.128,118.026C161.836,118.431 162.273,119.184 162.273,120C162.273,120.816 161.836,121.569 161.128,121.974L91.128,161.974C90.429,162.373 89.571,162.373 88.872,161.974L18.872,121.974C18.164,121.569 17.727,120.816 17.727,120C17.727,119.184 18.164,118.431 18.872,118.026ZM20,120L90,160L160,120L90,80L20,120Z" style="fill:rgb(232,118,42);"/>
        </g>
        <g transform="matrix(1.101577,0,0,0.859456,-16.328347,21.047874)">
            <path d="M90,80L90,151.158" style="fill:none;stroke:rgb(10,45,92);stroke-width:2.5px;"/>
        </g>
        <g transform="matrix(0.548062,0.955563,-1.015928,0.582685,190.705948,-23.452553)">
            <path d="M90,80L90,151.158" style="fill:none;stroke:rgb(10,45,92);stroke-width:2.2px;stroke-miterlimit:2;"/>
        </g>
        <g transform="matrix(-0.557929,0.949836,-1.009839,-0.593174,209.945695,112.967698)">
            <path d="M90,80L90,151.158" style="fill:none;stroke:rgb(10,45,92);stroke-width:2.2px;stroke-miterlimit:2;"/>
        </g>
        <g transform="matrix(1.101577,0,0,0.859456,-93.908914,-22.276339)">
            <path d="M90,80L90,151.158" style="fill:none;stroke:rgb(10,45,92);stroke-width:2.53px;stroke-miterlimit:2;"/>
        </g>
        <g transform="matrix(1.101577,0,0,0.859456,60.244681,-20.261259)">
            <path d="M90,80L90,151.158" style="fill:none;stroke:rgb(10,45,92);stroke-width:2.47px;"/>
        </g>
        <g transform="matrix(1.101577,0,0,1.101577,-16.328347,-84.364689)">
            <circle cx="20" cy="120" r="5" style="fill:rgb(232,118,42);"/>
        </g>
        <g transform="matrix(1.101577,0,0,1.101577,60.244681,-126.681362)">
            <circle cx="20" cy="120" r="5" style="fill:rgb(232,118,42);"/>
        </g>
        <g transform="matrix(1.101577,0,0,1.101577,-16.328347,-84.364689)">
            <circle cx="160" cy="120" r="5" style="fill:rgb(232,118,42);"/>
        </g>
        <g transform="matrix(1.101577,0,0,1.101577,61.25222,-42.048016)">
            <circle cx="20" cy="120" r="5" style="fill:rgb(232,118,42);"/>
        </g>
        <g transform="matrix(1.101577,0,0,1.101577,-16.5237,-23.592712)">
            <circle cx="20" cy="120" r="5" style="fill:rgb(10,45,92);"/>
        </g>
        <g transform="matrix(1.101577,0,0,1.101577,61.25222,18.590838)">
            <circle cx="20" cy="120" r="5" style="fill:rgb(10,45,92);"/>
        </g>
        <g transform="matrix(1.101577,0,0,1.101577,137.709905,-23.592712)">
            <circle cx="20" cy="120" r="5" style="fill:rgb(10,45,92);"/>
        </g>
        <g transform="matrix(1.101577,0,0,1.101577,-18.040653,-136.589705)">
            <circle cx="55" cy="148" r="3" style="fill:rgb(10,45,92);"/>
        </g>
        <g transform="matrix(1.101577,0,0,1.101577,23.842726,-43.321795)">
            <circle cx="90" cy="120" r="3" style="fill:rgb(10,45,92);"/>
        </g>
        <g transform="matrix(1.101577,0,0,1.101577,-30.882871,-96.350757)">
            <circle cx="55" cy="175" r="3" style="fill:rgb(10,45,92);"/>
        </g>
        <g transform="matrix(1.101577,0,0,1.101577,22.516741,-74.184881)">
            <circle cx="55" cy="175" r="3" style="fill:rgb(10,45,92);"/>
        </g>
        <g transform="matrix(1.101577,0,0,1.101577,61.581096,-166.982954)">
            <circle cx="55" cy="175" r="3" style="fill:rgb(10,45,92);"/>
        </g>
        <g transform="matrix(0.921288,0,0,0.921288,64.257017,-43.841168)">
            <circle cx="20" cy="120" r="5" style="fill:rgb(10,45,92);"/>
        </g>
        <g transform="matrix(1.101577,0,0,1.101577,65.861835,-65.101361)">
            <circle cx="55" cy="175" r="3" style="fill:rgb(10,45,92);"/>
        </g>
        <g transform="matrix(1.101577,0,0,1.101577,76.845586,-133.394813)">
            <circle cx="55" cy="175" r="3" style="fill:rgb(10,45,92);"/>
        </g>
        <g transform="matrix(1.101577,0,0,1.101577,-12.178128,-59.891388)">
            <circle cx="55" cy="175" r="3" style="fill:rgb(10,45,92);"/>
        </g>
        <g transform="matrix(1.101577,0,0,1.101577,-52.286567,-90.613522)">
            <circle cx="90" cy="135" r="3" style="fill:rgb(10,45,92);"/>
        </g>
        <g transform="matrix(1.101577,0,0,1.101577,4.44636,-104.022237)">
            <circle cx="90" cy="135" r="3" style="fill:rgb(10,45,92);"/>
        </g>
    </g>
</svg>
